{
  "accessors": [
    {
      "bufferView": 2,
      "componentType": 5126,
      "count": 3805,
      "max": [
        0.4396008849143982,
        0.021893499419093132,
        0.4420965313911438
      ],
      "min": [
        -0.44174930453300476,
        -0.1720559298992157,
        -0.4414080083370209
      ],
      "type": "VEC3"
    },
    {
      "bufferView": 2,
      "byteOffset": 45660,
      "componentType": 5126,
      "count": 3805,
      "max": [
        0.9999999403953552,
        0.9999992847442627,
        0.9999637603759766
      ],
      "min": [
        -0.9999896287918091,
        -0.9999397397041321,
        -0.9997749328613281
      ],
      "type": "VEC3"
    },
    {
      "bufferView": 3,
      "componentType": 5126,
      "count": 3805,
      "max": [
        0.9999997019767761,
        0.9999969601631165,
        0.9999995231628418,
        1.0
      ],
      "min": [
        -0.9999971389770508,
        -0.9999287724494934,
        -1.0,
        1.0
      ],
      "type": "VEC4"
    },
    {
      "bufferView": 1,
      "componentType": 5126,
      "count": 3805,
      "max": [
        0.9965304732322693,
        0.9973676800727844
      ],
      "min": [
        0.0026298165321350098,
        0.0026314565911889076
      ],
      "type": "VEC2"
    },
    {
      "bufferView": 0,
      "componentType": 5125,
      "count": 14910,
      "type": "SCALAR"
    }
  ],
  "asset": {
    "extras": {
      "author": "Artem Mykhailov (https://sketchfab.com/CGArtem)",
      "license": "CC-BY-4.0 (http://creativecommons.org/licenses/by/4.0/)",
      "source": "https://sketchfab.com/3d-models/medieval-shield-b98b8f64d935415aab0fe9b70074511f",
      "title": "Medieval Shield"
    },
    "generator": "Sketchfab-12.67.0",
    "version": "2.0"
  },
  "bufferViews": [
    {
      "buffer": 0,
      "byteLength": 59640,
      "name": "floatBufferViews",
      "target": 34963
    },
    {
      "buffer": 0,
      "byteLength": 30440,
      "byteOffset": 59640,
      "byteStride": 8,
      "name": "floatBufferViews",
      "target": 34962
    },
    {
      "buffer": 0,
      "byteLength": 91320,
      "byteOffset": 90080,
      "byteStride": 12,
      "name": "floatBufferViews",
      "target": 34962
    },
    {
      "buffer": 0,
      "byteLength": 60880,
      "byteOffset": 181400,
      "byteStride": 16,
      "name": "floatBufferViews",
      "target": 34962
    }
  ],
  "buffers": [
    {
      "byteLength": 242280,
      "uri": "scene.bin"
    }
  ],
  "images": [
    {
      "uri": "textures/M_Medieval_Shield_baseColor.png"
    },
    {
      "uri": "textures/M_Medieval_Shield_metallicRoughness.png"
    },
    {
      "uri": "textures/M_Medieval_Shield_normal.png"
    }
  ],
  "materials": [
    {
      "doubleSided": true,
      "name": "M_Medieval_Shield",
      "normalTexture": {
        "index": 2
      },
      "occlusionTexture": {
        "index": 1
      },
      "pbrMetallicRoughness": {
        "baseColorTexture": {
          "index": 0
        },
        "metallicRoughnessTexture": {
          "index": 1
        }
      }
    }
  ],
  "meshes": [
    {
      "name": "SM_Medieval_Shield_M_Medieval_Shield_0",
      "primitives": [
        {
          "attributes": {
            "NORMAL": 1,
            "POSITION": 0,
            "TANGENT": 2,
            "TEXCOORD_0": 3
          },
          "indices": 4,
          "material": 0,
          "mode": 4
        }
      ]
    }
  ],
  "nodes": [
    {
      "children": [
        1
      ],
      "matrix": [
        0.011511757969856262,
        5.339031126353135e-19,
        -3.8537640138495825e-19,
        0.0,
        -8.730314023197706e-20,
        -0.005440420257158071,
        -0.010145067711743396,
        0.0,
        -6.52645088482029e-19,
        0.010145067711743396,
        -0.005440420257158071,
        0.0,
        -5.551115123125783e-17,
        -3.544238805770874,
        0.9076249003410332,
        1.0
      ],
      "name": "Sketchfab_model"
    },
    {
      "children": [
        2
      ],
      "matrix": [
        1.0,
        0.0,
        0.0,
        0.0,
        0.0,
        0.0,
        1.0,
        0.0,
        0.0,
        -1.0,
        0.0,
        0.0,
        0.0,
        0.0,
        0.0,
        1.0
      ],
      "name": "f288ee92d3e94e439be102c493c23bd0.fbx"
    },
    {
      "children": [
        3
      ],
      "name": "RootNode"
    },
    {
      "children": [
        4
      ],
      "matrix": [
        100.0,
        0.0,
        0.0,
        0.0,
        0.0,
        -1.629206793918314e-05,
        -99.99999999999868,
        0.0,
        0.0,
        99.99999999999868,
        -1.629206793918314e-05,
        0.0,
        0.0,
        0.0,
        0.0,
        1.0
      ],
      "name": "SM_Medieval_Shield"
    },
    {
      "mesh": 0,
      "name": "SM_Medieval_Shield_M_Medieval_Shield_0"
    }
  ],
  "samplers": [
    {
      "magFilter": 9729,
      "minFilter": 9987,
      "wrapS": 10497,
      "wrapT": 10497
    }
  ],
  "scene": 0,
  "scenes": [
    {
      "name": "Sketchfab_Scene",
      "nodes": [
        0
      ]
    }
  ],
  "textures": [
    {
      "sampler": 0,
      "source": 0
    },
    {
      "sampler": 0,
      "source": 1
    },
    {
      "sampler": 0,
      "source": 2
    }
  ]
}
